<svg width="39" height="40" viewBox="0 0 39 40" xmlns="http://www.w3.org/2000/svg"><title>check-successful</title><g id="Page-1" fill="none" fill-rule="evenodd"><g id="Profile-Main---Promotion-Copy" transform="translate(-512 -532)" fill="#61A11A"><g id="mark" transform="translate(512 532.52)"><g id="check-successful"><path d="M11.5 18.367A1.368 1.368 0 0 0 9.567 20.3l6.3 6.3c.266.267.6.4.966.4h.067c.367-.033.733-.2 1-.5L33.667 7.6c.466-.567.4-1.433-.167-1.933a1.406 1.406 0 0 0-1.933.166L16.733 23.6 11.5 18.367z" id="Shape"/><path d="M29.7 3.1C22.033-1.7 12.2-.567 5.8 5.833c-7.533 7.534-7.533 19.834 0 27.367a19.314 19.314 0 0 0 27.333 0c6.434-6.433 7.534-16.3 2.7-23.967a1.354 1.354 0 1 0-2.3 1.433c4.167 6.6 3.2 15.067-2.333 20.6-6.467 6.467-17.033 6.467-23.5 0-6.467-6.466-6.467-17.033 0-23.5C13.233 2.267 21.667 1.3 28.267 5.4A1.354 1.354 0 1 0 29.7 3.1z" id="Shape"/></g></g></g></g></svg>