<svg width="20" height="20" viewBox="0 0 20 20" xmlns="http://www.w3.org/2000/svg"><title>Shape</title><g id="Page-1" fill="none" fill-rule="evenodd"><g id="Sign-In" transform="translate(-662 -351)" fill="#FFF"><g id="Sign-in" transform="translate(140 238)"><g id="Group-2" transform="translate(511 103)"><path d="M29 10H13c-1.1 0-2 .9-2 2v16c0 1.1.9 2 2 2h16c1.1 0 2-.9 2-2V12c0-1.1-.9-2-2-2zm-1 2v3h-2c-.6 0-1 .4-1 1v2h3v3h-3v7h-3v-7h-2v-3h2v-2.5c0-1.9 1.6-3.5 3.5-3.5H28z" id="Shape"/></g></g></g></g></svg>