<svg width="22" height="22" viewBox="0 0 22 22" xmlns="http://www.w3.org/2000/svg"><title>Shape</title><g id="Page-1" fill="none" fill-rule="evenodd"><g id="Sign-In" transform="translate(-663 -408)" fill="#FFF"><g id="Sign-in" transform="translate(140 238)"><g id="Group" transform="translate(511 160)"><path d="M31 19.025v-2.631h-1.852v2.631H26.37v1.755h2.778v2.631H31V20.78h2.778v-1.755H31zm-7.13 2.983l-1.018-.702c-.37-.263-.74-.614-.74-1.228s.462-1.14.925-1.403c1.204-.878 2.407-1.843 2.407-3.772 0-1.842-1.203-2.895-1.851-3.421h1.574l1.11-1.229h-5.74c-4.074 0-6.111 2.457-6.111 5.088 0 2.018 1.667 4.21 4.63 4.21h.74c-.092.264-.37.702-.37 1.141 0 .877.37 1.228.833 1.754-1.296.088-3.703.351-5.463 1.404-1.666.965-2.13 2.28-2.13 3.246 0 2.017 1.945 3.947 6.112 3.947 5 0 7.407-2.632 7.407-5.175 0-1.843-1.018-2.807-2.315-3.86zm-7.037-7.983c0-1.93 1.204-2.807 2.5-2.807 2.408 0 3.704 3.07 3.704 4.825 0 2.28-1.944 2.72-2.685 2.72-2.315 0-3.519-2.72-3.519-4.738zm3.334 15.79c-3.056 0-5-1.316-5-3.246s1.851-2.544 2.407-2.807c1.204-.35 2.778-.438 3.056-.438h.648c2.222 1.49 3.148 2.105 3.148 3.508 0 1.667-1.76 2.983-4.26 2.983z" id="Shape"/></g></g></g></g></svg>