<svg width="39" height="45" viewBox="0 0 39 45" xmlns="http://www.w3.org/2000/svg"><title>Untitled</title><g id="Page-1" fill="none" fill-rule="evenodd"><g id="img-girl" fill="#0078FF"><g id="Page-1"><g id="Profile-Main---Add-A-Child"><g id="girl"><g id="Capa_1"><g id="Group"><path d="M22.472 33.965a4.155 4.155 0 0 1-5.884 0 .848.848 0 0 0-1.202 0 .855.855 0 0 0 0 1.206 5.832 5.832 0 0 0 4.144 1.72c1.5 0 3.002-.573 4.144-1.72a.855.855 0 0 0 0-1.206.848.848 0 0 0-1.202 0z" id="Shape"/><path d="M38.769 42.428c-1.992-2.213-2.076-7.851-1.84-13.685a4.473 4.473 0 0 0 1.41-3.264c0-1.129-.419-2.16-1.108-2.949.29-5.95.443-9.93-1.438-13.605-1.283-2.507-3.36-4.602-6.171-6.226A20.144 20.144 0 0 0 18.81.013c-3.334.12-6.438 1.678-8.579 4.293-2.764.165-5.278 1.675-6.63 4.007-.117.2-.229.406-.334.612-1.882 3.677-1.729 7.656-1.44 13.606a4.468 4.468 0 0 0-1.107 2.948c0 1.286.543 2.445 1.41 3.263.236 5.834.151 11.473-1.84 13.686a.855.855 0 0 0 .33 1.37 17.886 17.886 0 0 0 6.372 1.154c2.035 0 3.842-.328 5.26-.713 2.466-.669 4.204-1.608 4.797-1.954a15.188 15.188 0 0 0 4.96 0c.593.346 2.331 1.285 4.796 1.954 1.892.513 3.646.714 5.233.714 2.644 0 4.823-.557 6.4-1.155a.852.852 0 0 0 .33-1.37zM34.726 27.24v-4.235-.164a2.776 2.776 0 0 1-.026 5.285c.017-.293.026-.588.026-.886zM4.78 9.705c.092-.18.19-.36.291-.534 1.12-1.93 3.261-3.147 5.59-3.173h.01a.85.85 0 0 0 .658-.334c1.835-2.402 4.584-3.84 7.542-3.946a18.453 18.453 0 0 1 9.902 2.46c2.523 1.457 4.376 3.317 5.508 5.527 1.505 2.941 1.55 6.14 1.303 11.637a4.423 4.423 0 0 0-.858-.259v-.867a.852.852 0 0 0-.85-.854c-.47 0-.85.382-.85.854v1.937c-11.71.126-18.05-5.535-19.741-7.305a.848.848 0 0 0-1.4.265c-1.236 3.016-3.394 4.594-6.793 4.965a.852.852 0 0 0-.758.848v.157a4.415 4.415 0 0 0-.858.26c-.247-5.496-.202-8.695 1.304-11.638zm-.42 18.421a2.776 2.776 0 0 1-.026-5.284v4.398c0 .298.01.593.026.886zM2.283 42.563C3.8 39.966 4.063 35.65 3.87 29.76c.225.07.459.121.698.154a15.285 15.285 0 0 0 9.957 11.724c-2.46 1.062-7.115 2.47-12.242.925zm17.247-1.78c-7.441 0-13.496-6.075-13.496-13.543v-5.57c3.189-.526 5.459-2.1 6.898-4.788 1.224 1.121 3.205 2.66 5.996 4.007 4.196 2.026 8.936 3.026 14.098 2.97v3.381c0 7.468-6.054 13.543-13.496 13.543zm7.776 1.824a20.071 20.071 0 0 1-2.774-.968 15.285 15.285 0 0 0 9.96-11.725c.24-.033.473-.084.698-.154-.193 5.89.07 10.207 1.587 12.803-3.003.91-6.183.926-9.471.044z" id="Shape"/><path d="M9.369 24.712a.855.855 0 0 0 0 1.206.848.848 0 0 0 1.202 0 1.396 1.396 0 0 1 1.976 0 .846.846 0 0 0 1.203 0 .855.855 0 0 0 0-1.206 3.094 3.094 0 0 0-4.381 0zM29.692 25.918a.855.855 0 0 0 0-1.206 3.094 3.094 0 0 0-4.381 0 .855.855 0 0 0 0 1.206.848.848 0 0 0 1.202 0 1.396 1.396 0 0 1 1.976 0 .846.846 0 0 0 1.203 0z" id="Shape"/></g></g></g></g></g></g></g></svg>