<svg width="40" height="45" viewBox="0 0 40 45" xmlns="http://www.w3.org/2000/svg"><title>Untitled</title><g id="Page-1" fill="none" fill-rule="evenodd"><g id="img-boy" fill="#0078FF"><g id="Page-1"><g id="Profile-Main---Add-A-Child"><g id="boy"><g id="Capa_1"><g id="Group"><path d="M11.254 26c.413 0 .802.161 1.095.454a.844.844 0 0 0 1.198 0 .847.847 0 0 0 0-1.198 3.221 3.221 0 0 0-2.293-.95c-.866 0-1.68.337-2.293.95a.847.847 0 1 0 1.198 1.198A1.538 1.538 0 0 1 11.254 26zM26.502 25.256a.847.847 0 1 0 1.198 1.198 1.55 1.55 0 0 1 2.19 0 .844.844 0 0 0 1.198 0 .847.847 0 0 0 0-1.198 3.246 3.246 0 0 0-4.586 0zM28.79 33.612c-4.833 4.834-12.698 4.834-17.532 0a.847.847 0 1 0-1.197 1.198 14.047 14.047 0 0 0 9.963 4.12c3.609 0 7.217-1.373 9.964-4.12a.847.847 0 1 0-1.198-1.198z" id="Shape"/><path d="M39.973 26.913c0-2.3-1.663-4.22-3.85-4.62V8.123a5.459 5.459 0 0 0-2.447-4.56 5.457 5.457 0 0 0-4.84-.601l-5.318-1.805C19.432-.23 15.13-.373 11.08.745 5.775 2.208 2.734 5.303 2.265 9.702a6.43 6.43 0 0 0-.97 1.827l-.412 1.22a1.45 1.45 0 0 0 .607 1.715 1.45 1.45 0 0 0 1.81-.186c.17-.165.355-.303.55-.42v8.435A4.704 4.704 0 0 0 0 26.913a4.704 4.704 0 0 0 4.115 4.66 16.266 16.266 0 0 0 4.448 8.546c3.052 3.096 7.109 4.8 11.424 4.8h.001a16.03 16.03 0 0 0 11.408-4.726 16.019 16.019 0 0 0 4.488-8.623 4.704 4.704 0 0 0 4.09-4.657zM32.74 4.976a3.72 3.72 0 0 1 1.688 3.147v11.085a5.504 5.504 0 0 1-4.647-5.43l-.07-9.313a3.71 3.71 0 0 1 3.029.51zM2.736 12.558l.164-.487a4.75 4.75 0 0 1 2.628-2.843 4.75 4.75 0 0 1 3.87.06 6.477 6.477 0 0 0 7.541-1.57l.21-.237a.847.847 0 1 0-1.269-1.123l-.21.238a4.773 4.773 0 0 1-5.556 1.157A6.446 6.446 0 0 0 4.86 7.67a6.456 6.456 0 0 0-.448.215C5.397 5.26 7.78 3.413 11.53 2.378c3.723-1.027 7.68-.895 11.444.383l5.042 1.711.066 4.377a14.889 14.889 0 0 1-9.25 5.83 14.893 14.893 0 0 1-10.977-2.168 4.59 4.59 0 0 0-5.12.047zM1.694 26.913c0-1.362.912-2.514 2.157-2.881v4.591c0 .397.014.791.042 1.183a3.009 3.009 0 0 1-2.199-2.893zM30.2 38.995a14.348 14.348 0 0 1-10.211 4.23h-.001c-3.858 0-7.487-1.525-10.217-4.295a14.595 14.595 0 0 1-4.225-10.307V13.46c.48.036.955.191 1.384.471a16.578 16.578 0 0 0 12.219 2.413 16.567 16.567 0 0 0 8.938-4.864v2.299c0 3.677 2.776 6.717 6.342 7.137v7.868c0 3.858-1.502 7.485-4.23 10.212zm5.89-9.192c.022-.338.034-.678.034-1.02v-4.751a3.008 3.008 0 0 1 2.156 2.881 3.008 3.008 0 0 1-2.19 2.89z" id="Shape"/></g></g></g></g></g></g></g></svg>