<svg width="86" height="47" viewBox="0 0 86 47" xmlns="http://www.w3.org/2000/svg" xmlns:xlink="http://www.w3.org/1999/xlink"><title>logo</title><defs><path d="M12.71 8.912c.177 3.284-2.673 3.818-3.979 2.533 0 0 .175 1.748 2.407 2.947 1.903 1.022 5.84 1.256 7.013-5.169.546-2.988 3.536-4.519 4.97-1.917a11.299 11.299 0 0 0-6.436 10.2c0 6.22 5.038 11.28 11.231 11.28 6.192 0 11.23-5.06 11.23-11.28 0-6.222-5.038-11.283-11.23-11.283-.678 0-1.344.065-1.991.182-.035-1.47-.631-4.407-4.66-5.504a7.745 7.745 0 0 0-2.027-.284c-4.246 0-6.758 4.015-6.528 8.295zm5.466 8.593c0-.99.148-1.945.422-2.846.537-.589 1.927-1.664 5.112-2.05l.739-2.449.496 2.284s7.531-1.66 12.356 2.445c.23.834.355 1.71.355 2.616 0 5.395-4.369 9.784-9.74 9.784s-9.74-4.389-9.74-9.784z" id="path-1"/><path id="path-3" d="M22.378 20.541c.451 2.563 2.758 4.693 5.538 4.693 2.78 0 5.087-2.13 5.537-4.693H22.378z"/><path id="path-5" d="M23.146 16.363c0 .721.583 1.305 1.303 1.305.716 0 1.299-.584 1.299-1.305 0-.722-.583-1.306-1.299-1.306-.72 0-1.303.584-1.303 1.306z"/><path id="path-7" d="M30.188 16.363c0 .721.581 1.305 1.3 1.305.718 0 1.301-.584 1.301-1.305 0-.722-.583-1.306-1.301-1.306-.719 0-1.3.584-1.3 1.306z"/><path d="M52.15 8.072a11.118 11.118 0 0 0-3.114-.445c-6.192 0-11.231 5.061-11.231 11.281 0 6.221 5.039 11.28 11.231 11.28 6.193 0 11.23-5.059 11.23-11.28 0-4.383-2.504-8.188-6.148-10.054.413-.864 1.554-1.28 1.554-1.28-.925-.266-1.592-.035-2.031.272.13-1.03-.062-2.48-1.749-3.49 0 0 1.447 1.803.258 3.716zM39.294 18.908c0-.794.096-1.566.276-2.307 2.471-.426 9.736-2.01 13.037-6.262 0 0 2.019 5.174 6.078 7.26.059.43.09.865.09 1.31 0 5.394-4.369 9.784-9.739 9.784-5.372 0-9.742-4.39-9.742-9.785z" id="path-9"/><path id="path-11" d="M43.496 21.945c.451 2.564 2.76 4.693 5.54 4.693 2.779 0 5.086-2.129 5.536-4.693H43.496z"/><path id="path-13" d="M44.213 17.766c0 .721.584 1.306 1.301 1.306.718 0 1.3-.585 1.3-1.306 0-.722-.582-1.306-1.3-1.306-.717 0-1.301.584-1.301 1.306z"/><path id="path-15" d="M51.254 17.766c0 .721.583 1.306 1.301 1.306.72 0 1.3-.585 1.3-1.306a1.301 1.301 0 1 0-2.601 0z"/></defs><g id="Welcome" fill="none" fill-rule="evenodd"><g id="payments" transform="translate(-42 -17)"><g id="header" transform="translate(42 17)"><g id="logo"><mask id="mask-2" fill="#fff"><use xlink:href="#path-1"/></mask><use id="Clip-2" fill="#565A5C" xlink:href="#path-1"/><mask id="mask-4" fill="#fff"><use xlink:href="#path-3"/></mask><use id="Clip-5" fill="#565A5C" xlink:href="#path-3"/><mask id="mask-6" fill="#fff"><use xlink:href="#path-5"/></mask><use id="Clip-8" fill="#565A5C" xlink:href="#path-5"/><mask id="mask-8" fill="#fff"><use xlink:href="#path-7"/></mask><use id="Clip-11" fill="#565A5C" xlink:href="#path-7"/><path d="M68.043 42.635c-.34-.667-.789-1.429-1.02-1.905-.286.558-.708 1.361-1.02 2l2.04-.095zm-6.04 2.19c.366-.585 3.686-6.014 4.938-7.782h.258c1.511 2.095 4.75 6.98 5.266 7.646l-2.503 1.375c-.368-.558-.993-1.606-1.089-1.742l-3.633.177c-.067.11-.516 1.034-.789 1.578l-2.449-1.252z" id="Fill-13" fill="#565A5C"/><path d="M73.213 43.846c1.334.027 2.734-.19 2.734-.749 0-.258-.244-.42-1.264-.87-.789-.354-1.824-.912-1.824-2 0-1.429 2-2.83 5.28-3.008l.326 2.096c-1.688 0-2.544.11-2.544.6 0 .298.448.461 1.251.774.668.26 1.865.75 1.865 1.905 0 1.415-1.619 3.02-5.51 3.32l-.314-2.068z" id="Fill-15" fill="#565A5C"/><g id="Group-19" transform="translate(79 37.077)" fill="#565A5C"><path d="M1.151 6.769c1.335.027 2.736-.191 2.736-.749 0-.258-.245-.421-1.265-.871-.79-.353-1.825-.911-1.825-2 0-1.428 2-2.83 5.28-3.007l.327 2.096c-1.688 0-2.544.109-2.544.599 0 .299.449.462 1.252.775.665.259 1.862.749 1.862 1.905 0 1.415-1.618 3.02-5.51 3.32l-.313-2.068z" id="Fill-17"/></g><path d="M7.714 45.791c-.476.055-.966.11-1.605.11C1.646 45.9 0 43.627 0 41.804c0-2.259 2.054-4.994 6.748-6l.599 2.612c-2.871.517-4.028 1.77-4.028 3.047 0 1.048 1.144 1.905 2.953 1.905.545 0 .98-.04 1.306-.068l.136 2.49z" id="Fill-20" fill="#565A5C"/><path d="M9.578 45.682c.013-.503.026-3.21.026-3.51V40.92c0-.203-.026-3.17-.053-3.456h3.06c-.027.218-.068 2.45-.068 2.654v.407l2.98-.216v-.436c0-.191-.027-2.15-.054-2.408h3.048a348.24 348.24 0 0 0-.055 3.795v1.157c0 .15.027 3.047.055 3.265H15.47c.013-.395.054-2.272.054-2.49v-.801l-2.98.217v.34c0 .53.041 2.462.055 2.734h-3.02z" id="Fill-22" fill="#565A5C"/><path d="M23.96 42.186c0 1.156.04 3.225.053 3.497h-3.02c.013-.504.027-3.211.027-3.511V40.92c0-.203-.028-3.17-.028-3.456h3.021c-.014.218-.054 2.082-.054 3.47v1.252z" id="Fill-24" fill="#565A5C"/><path d="M29.509 37.464c-.013.272-.067 2.653-.067 4.11V43.6c.298 0 1.754 0 2.748-.054l.013 2.258c-.367 0-4.667-.123-5.728-.123.027-.612.027-3.088.027-3.36v-1.538c0-.19-.027-3.089-.041-3.32h3.048z" id="Fill-26" fill="#565A5C"/><path d="M36.625 43.587c1.115-.149 2.598-.952 2.598-2.57 0-1.43-1.306-1.648-2.598-1.648v4.218zm-2.885-2.993c0-.245-.013-2.803-.054-3.13 2.326 0 3.632.041 4.775.191 3.252.408 3.838 2.013 3.838 2.953 0 3.754-4.572 5.238-8.627 5.128.041-.53.068-3.4.068-3.713v-1.429z" id="Fill-28" fill="#565A5C"/><path d="M43.576 43.846c1.334.027 2.735-.19 2.735-.749 0-.258-.245-.42-1.264-.87-.789-.354-1.825-.912-1.825-2 0-1.429 2-2.83 5.28-3.008l.326 2.096c-1.687 0-2.544.11-2.544.6 0 .298.448.461 1.251.774.668.26 1.865.75 1.865 1.905 0 1.415-1.619 3.02-5.51 3.32l-.314-2.068z" id="Fill-30" fill="#565A5C"/><path d="M57.604 41.356c.789-.122 1.85-.803 1.85-1.932 0-.761-.394-1.387-1.85-1.496v3.428zm-3.006 4.327c.013-.585.04-3.865.04-4.83v-1.497c0-.313-.04-3.13-.04-3.333 2.598 0 4.258.067 5.387.34 1.36.34 2.558 1.143 2.558 2.68 0 1.769-1.646 3.687-4.94 4.232v.367c0 .272 0 1.755.028 2.04h-3.033z" id="Fill-32" fill="#565A5C"/><mask id="mask-10" fill="#fff"><use xlink:href="#path-9"/></mask><use id="Clip-36" fill="#565A5C" xlink:href="#path-9"/><mask id="mask-12" fill="#fff"><use xlink:href="#path-11"/></mask><use id="Clip-39" fill="#565A5C" xlink:href="#path-11"/><mask id="mask-14" fill="#fff"><use xlink:href="#path-13"/></mask><use id="Clip-42" fill="#565A5C" xlink:href="#path-13"/><mask id="mask-16" fill="#fff"><use xlink:href="#path-15"/></mask><use id="Clip-45" fill="#565A5C" xlink:href="#path-15"/></g></g></g></g></svg>